HIERARCHY
ROOT pelvis
{
  OFFSET 0 100 0
  CHANNELS 6 Xposition Yposition Zposition Zrotation Xrotation Yrotation
  JOINT pelvis_right_femur
  {
    OFFSET -10.78128 -3.44521 -0.5502486
    CHANNELS 3 Zrotation Xrotation Yrotation
    JOINT right_femur_tibia
    {
      OFFSET -0.8047443 -44.0398 -0.1307829
      CHANNELS 3 Zrotation Xrotation Yrotation
      JOINT right_tibia_foot
      {
        OFFSET 3.006224 -47.83518 -5
        CHANNELS 3 Zrotation Xrotation Yrotation
        End Site
        {
          OFFSET 0 -5 15
        }
      }
    }
  }
  JOINT pelvis_left_femur
  {
    OFFSET 10.78128 -3.44521 -0.5502486
    CHANNELS 3 Zrotation Xrotation Yrotation
    JOINT left_femur_tibia
    {
      OFFSET 0.8047443 -44.0398 -0.1307829
      CHANNELS 3 Zrotation Xrotation Yrotation
      JOINT left_tibia_foot
      {
        OFFSET -4.370144 -48.10324 -4.275266
        CHANNELS 3 Zrotation Xrotation Yrotation
        End Site
        {
          OFFSET 0 -5 15
        }
      }
    }
  }
  JOINT pelvis_spine1
  {
    OFFSET 0 6.468898 -3.129235
    CHANNELS 3 Zrotation Xrotation Yrotation
    JOINT spine1
    {
      OFFSET 0 23.15396 4.99043
      CHANNELS 3 Zrotation Xrotation Yrotation
      JOINT spine2
      {
        OFFSET 0 20.79997 -5.064912
        CHANNELS 3 Zrotation Xrotation Yrotation
        JOINT neck
        {
          OFFSET 0 14.38658 9.616178
          CHANNELS 3 Zrotation Xrotation Yrotation
          End Site
          {
            OFFSET 0 20 0
          }
        }
      }
      JOINT right_manubrium
      {
        OFFSET -5.722621 16.35077 3.967754
        CHANNELS 3 Zrotation Xrotation Yrotation
        JOINT right_clavicle
        {
          OFFSET -13.16364 1.694482 -4.693211
          CHANNELS 3 Zrotation Xrotation Yrotation
          JOINT right_humerus
          {
            OFFSET -28.5034 -0.3100689 -2.792744
            CHANNELS 3 Zrotation Xrotation Yrotation
            JOINT right_radius
            {
              OFFSET -25.15693 0.02248979 -1.271978
              CHANNELS 3 Zrotation Xrotation Yrotation
              End Site
              {
                OFFSET -15 0 0
              }
            }
          }
        }
      }
      JOINT left_manubrium
      {
        OFFSET 5.722621 16.35077 3.967754
        CHANNELS 3 Zrotation Xrotation Yrotation
        JOINT left_clavicle
        {
          OFFSET 13.16364 1.694482 -4.693211
          CHANNELS 3 Zrotation Xrotation Yrotation
          JOINT left_humerus
          {
            OFFSET 29.39168 -1.063119 -2.237045
            CHANNELS 3 Zrotation Xrotation Yrotation
            JOINT left_radius
            {
              OFFSET 24.59957 -0.9528479 0.9047498
              CHANNELS 3 Zrotation Xrotation Yrotation
              End Site
              {
                OFFSET 15 -0 -0
              }
            }
          }
        }
      }
    }
  }
}
MOTION
Frames: 23
Frame Time: 0.0416666666667
270.2378 90.94397 2658.889 -3.216852 -17.34613 -8.024729 5.973329 22.73399 -3.504197 -0 21.79747 -0 -13.71665 -8.169853 -3.890542 -0.1755585 -4.128747 -9.592297 -0 12.19622 -0 -2.193553 -7.380551 18.50583 1.642094 -1.606952 7.381838 1.136644 15.27016 -7.528157 1.749274 20.24166 -0.2376978 -2.305947 -21.53975 4.784473 -4.646841 -31.68304 12.54093 91.12431 19.61611 -10.6255 -0 0 28.91369 -21.26149 14.14361 10.64039 1.867298 -19.05631 -4.337882 -91.32474 11.14252 33.36678 0 0 -3.38581 11.26786 15.53128 -5.185997
270.3133 91.05627 2664.814 -2.831864 -17.95876 -8.234463 4.622655 23.89429 -4.417474 -0 25.02007 -0 -14.17368 -5.226034 -2.925308 -1.641369 -2.232855 -10.88313 -0 12.62263 -0 -3.910934 -8.904095 18.87104 1.638111 -1.715239 7.426905 1.13246 15.3118 -7.509147 1.728589 20.14785 -0.2769496 -2.287562 -21.44285 4.72398 -4.387953 -31.86292 12.58175 90.58948 19.32795 -10.25811 -0 0 29.60469 -21.59149 14.58834 10.89252 2.038498 -18.97661 -4.243135 -91.67558 11.16806 33.64559 0 0 -2.460434 11.34118 15.5906 -5.370071
270.2959 91.44059 2670.749 -2.398463 -18.59031 -8.241287 3.406923 24.201 -5.400138 -0 28.72428 -0 -15.11771 -1.830944 -1.862172 -3.017811 0.06381602 -12.1146 -0 13.36624 -0 -5.234777 -10.46152 19.19269 1.626572 -1.767734 7.436618 1.140257 15.33116 -7.517757 1.721493 20.15196 -0.2765254 -2.254767 -21.42632 4.709282 -4.291694 -31.89037 12.60986 90.38059 19.17659 -10.17974 -0 0 29.82107 -21.79376 14.71264 10.90961 2.172521 -18.9627 -4.177516 -91.84951 11.1714 33.65976 0 0 -1.877929 11.51254 15.6544 -5.716779
270.1924 92.06875 2676.54 -1.990807 -19.16071 -8.059483 2.422409 23.61185 -6.379724 -0 32.66515 -0 -16.3864 1.424807 -0.7861589 -4.171814 2.709429 -13.26583 -0 14.01436 -0 -6.240599 -11.97734 19.3769 1.604163 -1.752935 7.412888 1.160828 15.31657 -7.554905 1.727576 20.255 -0.2429488 -2.217479 -21.50007 4.741368 -4.372047 -31.77649 12.61828 90.49883 19.18702 -10.37367 -0 0 29.57943 -21.84942 14.49264 10.67437 2.262067 -18.98894 -4.125206 -91.83803 11.15017 33.42635 0 0 -1.608356 11.78784 15.71372 -6.24631
270.019 92.88265 2682.045 -1.648404 -19.58804 -7.720047 1.684445 22.20174 -7.270083 -0 36.49705 -0 -17.75194 3.991382 0.189952 -5.036106 5.573323 -14.35253 -0 14.35419 -0 -7.082784 -13.42062 19.36262 1.567922 -1.66224 7.358128 1.194742 15.25288 -7.619909 1.745597 20.451 -0.1810975 -2.184648 -21.67301 4.820956 -4.639223 -31.53626 12.59941 90.9396 19.3778 -10.81571 -0 0 28.90742 -21.74318 13.91342 10.18483 2.301448 -19.03125 -4.069766 -91.63306 11.10078 32.96669 0 0 -1.64318 12.16205 15.75571 -6.956584
269.7965 93.80463 2687.152 -1.374551 -19.80014 -7.263919 1.150202 20.15773 -7.962279 -0 39.87392 -0 -18.94656 5.463867 0.9239811 -5.601058 8.464952 -15.41255 -0 14.32605 -0 -7.911201 -14.7813 19.13038 1.516053 -1.491131 7.275335 1.241696 15.12474 -7.709748 1.773825 20.72656 -0.09403002 -2.16327 -21.95043 4.94785 -5.096702 -31.18832 12.54663 91.69214 19.75954 -11.47476 -0 0 27.84299 -21.46493 12.97355 9.458902 2.285539 -19.07036 -3.997696 -91.22845 11.01829 32.30816 0 0 -1.999944 12.61599 15.76582 -7.815454
269.5455 94.75326 2691.788 -1.142859 -19.73725 -6.733312 0.7497479 17.73023 -8.334062 -0 42.54582 -0 -19.71358 5.663391 1.285355 -5.902548 11.16489 -16.48126 -0 13.96717 -0 -8.803013 -16.04527 18.71257 1.448776 -1.240077 7.167596 1.300174 14.9205 -7.819071 1.810174 21.06151 0.01756318 -2.157056 -22.33125 5.120477 -5.737559 -30.75327 12.45631 92.73927 20.33407 -12.316 -0 0 26.43101 -21.01023 11.68931 8.535992 2.209404 -19.09586 -3.902462 -90.62075 10.89722 31.48197 0 0 -2.725108 13.11657 15.73073 -8.758792
269.2852 95.6594 2695.921 -0.9144555 -19.35259 -6.16695 0.4171324 15.15496 -8.275468 -0 44.41953 -0 -19.87675 4.660894 1.214469 -6.006388 13.46424 -17.56712 -0 13.35846 -0 -9.724819 -17.18014 18.1958 1.368825 -0.9155762 7.037425 1.367637 14.63557 -7.940982 1.851935 21.43057 0.1558825 -2.165055 -22.80568 5.335455 -6.53987 -30.2517 12.3302 94.05417 21.09288 -13.30411 -0 0 24.72209 -20.38188 10.09976 7.475651 2.070109 -19.10916 -3.78693 -89.81164 10.73327 30.51867 0 0 -3.886164 13.62225 15.64147 -9.698826
269.0318 96.47712 2699.556 -0.6611506 -18.61916 -5.600775 0.1134806 12.58048 -7.724983 -0 45.5541 -0 -19.39142 2.73352 0.7560927 -5.989988 15.20713 -18.63992 -0 12.5874 -0 -10.54298 -18.14203 17.70524 1.281063 -0.5311448 6.886473 1.441193 14.27431 -8.068334 1.895284 21.80602 0.3259407 -2.1809 -23.35434 5.587331 -7.463344 -29.70302 12.17664 95.59417 22.01467 -14.40434 -0 0 22.77551 -19.59311 8.270483 6.35222 1.870832 -19.123 -3.662236 -88.81298 10.5253 29.44445 0 0 -5.547454 14.09313 15.49549 -10.54378
268.7971 97.18625 2702.73 -0.3827531 -17.54302 -5.070128 -0.161915 10.03797 -6.703083 -0 46.09583 -0 -18.34931 0.2737995 0.04169241 -5.923149 16.32487 -19.63861 -0 11.73216 -0 -11.08142 -18.89835 17.36843 1.191105 -0.1072655 6.71599 1.518398 13.84922 -8.194982 1.935126 22.1612 0.5342632 -2.193663 -23.9503 5.868777 -8.451027 -29.12542 12.00965 97.29574 23.06409 -15.58106 -0 0 20.66358 -18.67068 6.29178 5.244682 1.624768 -19.15651 -3.542961 -87.65253 10.2769 28.2807 0 0 -7.735592 14.50164 15.29658 -11.22243
268.5884 97.78707 2705.506 -0.1080153 -16.17359 -4.607958 -0.374288 7.467617 -5.322131 -0 46.19471 -0 -16.93904 -2.313565 -0.7642032 -5.852944 16.8479 -20.49437 -0 10.86016 -0 -11.1974 -19.44811 17.27207 1.103632 0.3308949 6.52781 1.597706 13.37816 -8.316524 1.965815 22.47438 0.786349 -2.190631 -24.5638 6.171327 -9.438195 -28.53614 11.84524 99.0771 24.19451 -16.79632 -0 0 18.47097 -17.65414 4.267991 4.223247 1.355164 -19.22784 -3.441083 -86.37559 9.996572 27.04672 0 0 -10.41306 14.83817 15.05299 -11.70147
268.4081 98.29053 2707.962 0.1206952 -14.59927 -4.238387 -0.4703489 4.780806 -3.759314 -0 45.94821 -0 -15.38543 -4.695567 -1.518315 -5.798918 16.88789 -21.15434 -0 10.02807 -0 -10.8329 -19.82476 17.43537 1.021364 0.7578696 6.325112 1.678399 12.8805 -8.430431 1.982569 22.73156 1.083993 -2.160959 -25.16801 6.486409 -10.36559 -27.9511 11.69694 100.8504 25.35528 -18.01095 -0 0 16.28547 -16.59002 2.299992 3.337475 1.090272 -19.34813 -3.362097 -85.0391 9.696199 25.76264 0 0 -13.47788 15.10894 14.77484 -11.98704
268.2555 98.70829 2710.182 0.267996 -12.92591 -3.970754 -0.4039104 1.91679 -2.203682 -0 45.38879 -0 -13.8911 -6.656251 -2.128415 -5.760107 16.59748 -21.59309 -0 9.276934 -0 -10.01805 -20.08235 17.81384 0.9451008 1.152478 6.112385 1.760203 12.37383 -8.535755 1.982713 22.92716 1.424039 -2.098322 -25.74308 6.806268 -11.1904 -27.38362 11.57285 102.5379 26.50042 -19.18881 -0 0 14.18441 -15.52343 0.468557 2.611138 0.8561421 -19.51972 -3.304851 -83.70078 9.388549 24.44996 0 0 -16.78939 15.32882 14.47226 -12.11238
268.1285 99.04583 2712.253 0.3190252 -11.24887 -3.798962 -0.1570479 -1.135138 -0.8062737 -0 44.50077 -0 -12.59715 -8.100657 -2.555148 -5.727821 16.12697 -21.81013 -0 8.625959 -0 -8.837826 -20.27705 18.32651 0.874433 1.500449 5.894709 1.842923 11.87218 -8.632667 1.966021 23.06259 1.799117 -2.001444 -26.2772 7.1245 -11.89018 -26.84325 11.47523 104.0828 27.59449 -20.30118 -0 0 12.22422 -14.4915 -1.174135 2.045012 0.6715158 -19.73807 -3.263946 -82.40912 9.084992 23.1297 0 0 -20.20266 15.51406 14.15446 -12.12109
268.0251 99.29986 2714.253 0.2812026 -9.632807 -3.70587 0.2543433 -4.346805 0.344257 -0 43.24502 -0 -11.56985 -9.028675 -2.797371 -5.695924 15.5957 -21.82033 -0 8.072349 -0 -7.390769 -20.45375 18.88758 0.8085342 1.794446 5.676921 1.926248 11.38558 -8.722001 1.934212 23.14376 2.199549 -1.872917 -26.76532 7.436141 -12.46009 -26.33542 11.40215 105.4526 28.61379 -21.32907 -0 0 10.43774 -13.52101 -2.603359 1.624434 0.5465489 -19.99527 -3.232636 -81.19857 8.794348 21.82007 0 0 -23.59383 15.67786 13.82939 -12.05453
267.9432 99.45911 2716.253 0.1774556 -8.106457 -3.669009 0.7902234 -7.675307 1.218784 -0 41.57879 -0 -10.80982 -9.496322 -2.874582 -5.664692 15.08355 -21.64469 -0 7.599446 -0 -5.761449 -20.64102 19.42755 0.7467131 2.032412 5.463067 2.009717 10.92072 -8.804903 1.890094 23.17857 2.61522 -1.717491 -27.20671 7.737437 -12.90704 -25.86195 11.34941 106.6345 29.54412 -22.26277 -0 0 8.837678 -12.62934 -3.814779 1.327323 0.4842848 -20.28304 -3.204956 -80.08987 8.522891 20.53507 0 0 -26.87073 15.82875 13.50372 -11.94529
267.881 99.50707 2718.314 0.03681176 -6.669438 -3.664711 1.40216 -11.08241 1.829818 -0 39.46757 -0 -10.27363 -9.579125 -2.813932 -5.639519 14.63741 -21.30398 -0 7.189655 -0 -4.011564 -20.85227 19.90006 0.6886919 2.215513 5.256237 2.092737 10.48199 -8.882596 1.836814 23.17528 3.036758 -1.540668 -27.60272 8.025471 -13.24397 -25.42207 11.31219 107.6297 30.37744 -23.09996 -0 0 7.422699 -11.82694 -4.816078 1.130181 0.4829869 -20.59441 -3.17685 -79.09303 8.275071 19.2844 0 0 -29.97219 15.97063 13.18287 -11.81542
267.836 99.42545 2720.493 -0.113402 -5.303891 -3.669982 2.046392 -14.54303 2.2116 -0 36.89086 -0 -9.896927 -9.345187 -2.64308 -5.627668 14.28377 -20.81513 -0 6.837353 -0 -2.18418 -21.08938 20.27798 0.6346901 2.346461 5.05865 2.1746 10.0725 -8.956237 1.777379 23.14147 3.455968 -1.347902 -27.95518 8.297782 -13.48562 -25.01339 11.28589 108.4473 31.10877 -23.84335 -0 0 6.183216 -11.11981 -5.620096 1.011564 0.5381418 -20.92442 -3.146557 -78.21091 8.054461 18.07419 0 0 -32.86192 16.10333 12.87112 -11.67701
267.8045 99.19759 2722.846 -0.2522291 -3.985135 -3.662748 2.690709 -18.04425 2.405496 -0 33.84488 -0 -9.611755 -8.839375 -2.387512 -5.635364 14.04068 -20.18917 -0 6.559415 -0 -0.3144248 -21.34594 20.5441 0.5854149 2.428409 4.871883 2.254469 9.695002 -9.026828 1.714452 23.08378 3.865711 -1.144307 -28.26526 8.551989 -13.64606 -24.6328 11.2666 109.1001 31.73386 -24.49874 -0 0 5.10589 -10.51165 -6.24018 0.9535776 0.6437583 -21.26993 -3.114632 -77.44237 7.864658 16.90828 0 0 -35.52076 16.22327 12.57176 -11.53376
267.7815 98.81211 2725.43 -0.3669939 -2.689208 -3.621246 3.315984 -21.57724 2.452637 -0 30.34623 -0 -9.355476 -8.076835 -2.070987 -5.665914 13.92646 -19.43027 -0 6.404152 -0 1.556391 -21.60866 20.67993 0.5420451 2.464315 4.697169 2.331314 9.352711 -9.09514 1.650337 23.00795 4.259421 -0.934731 -28.53278 8.785419 -13.73744 -24.27708 11.25121 109.6018 32.24749 -25.0735 -0 0 4.17674 -10.00557 -6.687335 0.9422033 0.7929854 -21.62917 -3.083903 -76.78472 7.710075 15.78976 0 0 -37.93919 16.32391 12.28737 -11.38247
267.7603 98.26713 2728.312 -0.4536478 -1.398052 -3.523083 3.914909 -25.12225 2.393205 -0 26.44084 -0 -9.07226 -7.043656 -1.718596 -5.71844 13.96482 -18.53613 -0 6.461557 -0 3.362228 -21.85585 20.65337 0.5062737 2.456613 4.535744 2.403783 9.050253 -9.16161 1.587101 22.91913 4.630338 -0.7240812 -28.75555 8.994664 -13.76946 -23.94347 11.23738 109.9653 32.6418 -25.57552 -0 0 3.383269 -9.605581 -6.968454 0.9670996 0.9781216 -22.00108 -3.059629 -76.23565 7.596713 14.72292 0 0 -40.11053 16.3958 12.02031 -11.21404
267.7319 97.57622 2731.572 -0.5169483 -0.1046528 -3.34446 4.490587 -28.6233 2.271614 -0 22.22498 -0 -8.709699 -5.704462 -1.36269 -5.786086 14.18604 -17.5006 -0 6.878508 -0 4.985776 -22.0518 20.40468 0.4804373 2.407126 4.389264 2.469975 8.794809 -9.226155 1.526778 22.82234 4.970481 -0.517893 -28.92859 9.175011 -13.74908 -23.63031 11.22361 110.2024 32.90485 -26.01228 -0 0 2.716156 -9.317721 -7.085021 1.021372 1.189966 -22.38461 -3.050045 -75.79499 7.533054 13.71575 0 0 -42.02478 16.42614 11.77326 -11.01339
267.6848 96.7771 2735.306 -0.5719462 1.178867 -3.060427 5.057548 -31.94621 2.147863 -0 17.88833 -0 -8.214475 -4.021567 -1.051939 -5.851909 14.62168 -16.32046 -0 7.881507 -0 6.220505 -22.13331 19.8308 0.4677203 2.317279 4.26033 2.527096 8.597688 -9.287792 1.471663 22.72299 5.269299 -0.3231953 -29.04313 9.319766 -13.68025 -23.33797 11.20942 110.3224 33.01944 -26.38977 -0 0 2.171096 -9.150818 -7.032073 1.101698 1.416277 -22.7774 -3.067427 -75.46613 7.531113 12.78389 0 0 -43.66242 16.39776 11.54982 -10.75835
